<svg width="131" height="94" viewBox="0 0 131 94" fill="none" xmlns="http://www.w3.org/2000/svg">
<path d="M125.125 45.1875C125.125 49.3125 124.583 53.2917 123.5 57.125C122.458 60.9167 120.958 64.4792 119 67.8125C117.042 71.1042 114.708 74.125 112 76.875C109.292 79.5833 106.271 81.9167 102.938 83.875C99.6042 85.8333 96.0208 87.3542 92.1875 88.4375C88.3958 89.4792 84.4375 90 80.3125 90H53.3125V0.375H80.3125C84.4375 0.375 88.3958 0.916667 92.1875 2C96.0208 3.04167 99.6042 4.54167 102.938 6.5C106.271 8.45833 109.292 10.8125 112 13.5625C114.708 16.2708 117.042 19.2917 119 22.625C120.958 25.9167 122.458 29.4792 123.5 33.3125C124.583 37.1042 125.125 41.0625 125.125 45.1875ZM107.188 45.1875C107.188 41.4792 106.479 38 105.062 34.75C103.688 31.5 101.771 28.6667 99.3125 26.25C96.8958 23.7917 94.0417 21.8542 90.75 20.4375C87.5 19.0208 84.0208 18.3125 80.3125 18.3125H71.375V72.0625H80.3125C84.0208 72.0625 87.5 71.375 90.75 70C94.0417 68.5833 96.8958 66.6667 99.3125 64.25C101.771 61.7917 103.688 58.9375 105.062 55.6875C106.479 52.3958 107.188 48.8958 107.188 45.1875Z" fill="#EF3651"/>
<path d="M26.25 90H8.3125V0.375H71.0625V18.3125H26.25V36.25H53.125V54.1875H26.25V90Z" fill="#EF3651"/>
</svg>
